Started on 2012-11-30 18:28:29 - 2012 Nov 30

Checking File ....
File : /mnt/array1/www/htdocs/wwwroot/files/conversion_queue/13542713024a29d.flv
File Exists : Yes
raw_output_for_stat : ffmpeg version N-44546-g66bdc58 Copyright (c) 2000-2012 the FFmpeg developers
  built on Sep 20 2012 14:29:12 with gcc 4.3.2 (Sourcery G++ Lite 2008q3-72)
  configuration: --prefix=/home/administrator/nas/usr/local --arch=arm --target-os=linux --enable-gpl --enable-libx264 --enable-libxvid --enable-cross-compile --cross-prefix=/usr/local/arm/4.3.2/bin/arm-linux- --extra-cflags=-I/home/administrator/nas/usr/local/include --extra-ldflags=-L/home/administrator/nas/usr/local/lib --extra-cflags=-static --extra-ldflags=-static --enable-libfaac --enable-nonfree
  libavutil      51. 73.101 / 51. 73.101
  libavcodec     54. 56.100 / 54. 56.100
  libavformat    54. 27.101 / 54. 27.101
  libavdevice    54.  2.100 / 54.  2.100
  libavfilter     3. 16.104 /  3. 16.104
  libswscale      2.  1.101 /  2.  1.101
  libswresample   0. 15.100 /  0. 15.100
  libpostproc    52.  0.100 / 52.  0.100
Input #0, flv, from '/mnt/array1/www/htdocs/wwwroot/files/conversion_queue/13542713024a29d.flv':
  Metadata:
    starttime       : 0
    totalduration   : 299
    totaldatarate   : 545
    bytelength      : 20391508
    canseekontime   : true
    sourcedata      : BCA28DD06HH1348547540438031
    purl            : 
    pmsg            : 
  Duration: 00:04:59.06, start: 0.000000, bitrate: 545 kb/s
    Stream #0:0: Video: h264 (Main), yuv420p, 854x480, 453 kb/s, 29.97 tbr, 1k tbn, 59.94 tbc
    Stream #0:1: Audio: aac, 44100 Hz, stereo, s16, 96 kb/s
Output #0, null, to '/dev/null':
  Metadata:
    starttime       : 0
    totalduration   : 299
    totaldatarate   : 545
    bytelength      : 20391508
    canseekontime   : true
    sourcedata      : BCA28DD06HH1348547540438031
    purl            : 
    pmsg            : 
    encoder         : Lavf54.27.101
    Stream #0:0: Video: h264, yuv420p, 854x480, q=2-31, 453 kb/s, 90k tbn, 29.97 tbc
    Stream #0:1: Audio: aac, 44100 Hz, stereo, 96 kb/s
Stream mapping:
  Stream #0:0 -> #0:0 (copy)
  Stream #0:1 -> #0:1 (copy)
Press [q] to stop, [?] for help
frame= 1333 fps=0.0 q=-1.0 size=       0kB time=00:00:44.48 bitrate=   0.0kbits/s    frame= 1718 fps=1717 q=-1.0 size=       0kB time=00:00:57.33 bitrate=   0.0kbits/s    frame= 2029 fps=1345 q=-1.0 size=       0kB time=00:01:07.70 bitrate=   0.0kbits/s    frame= 2278 fps=1110 q=-1.0 size=       0kB time=00:01:16.00 bitrate=   0.0kbits/s    frame= 2638 fps=1034 q=-1.0 size=       0kB time=00:01:28.02 bitrate=   0.0kbits/s    frame= 2968 fps=971 q=-1.0 size=       0kB time=00:01:39.03 bitrate=   0.0kbits/s    frame= 3166 fps=886 q=-1.0 size=       0kB time=00:01:45.65 bitrate=   0.0kbits/s    frame= 3488 fps=850 q=-1.0 size=       0kB time=00:01:56.38 bitrate=   0.0kbits/s    frame= 3788 fps=821 q=-1.0 size=       0kB time=00:02:06.39 bitrate=   0.0kbits/s    frame= 4693 fps=918 q=-1.0 size=       0kB time=00:02:36.58 bitrate=   0.0kbits/s    frame= 5401 fps=943 q=-1.0 size=       0kB time=00:03:00.21 bitrate=   0.0kbits/s    frame= 5676 fps=911 q=-1.0 size=       0kB time=00:03:09.40 bitrate=   0.0kbits/s    frame= 6056 fps=899 q=-1.0 size=       0kB time=00:03:22.06 bitrate=   0.0kbits/s    frame= 6631 fps=914 q=-1.0 size=       0kB time=00:03:41.25 bitrate=   0.0kbits/s    frame= 6999 fps=903 q=-1.0 size=       0kB time=00:03:53.54 bitrate=   0.0kbits/s    frame= 7733 fps=935 q=-1.0 size=       0kB time=00:04:18.02 bitrate=   0.0kbits/s    frame= 8094 fps=922 q=-1.0 size=       0kB time=00:04:30.06 bitrate=   0.0kbits/s    frame= 8896 fps=958 q=-1.0 size=       0kB time=00:04:56.83 bitrate=   0.0kbits/s    frame= 8964 fps=950 q=-1.0 Lsize=       0kB time=00:04:59.21 bitrate=   0.0kbits/s    
video:16112kB audio:3412kB subtitle:0 global headers:0kB muxing overhead -100.000000%


Preparing file...
format : flv
duration : 299.06
size : 20391508
bitrate : 532
video_width : 854
video_height : 480
video_wh_ratio : 1.77916666667
video_codec : h264
video_rate : 29.9739182773
video_bitrate : 431
video_color : N/A
audio_codec : aac
audio_bitrate : 91
audio_rate : 44100
audio_channels : stereo
path : /mnt/array1/www/htdocs/wwwroot/files/conversion_queue/13542713024a29d.flv

Converting Video
Conversion Command : /usr/local/bin/ffmpeg -i /mnt/array1/www/htdocs/wwwroot/files/conversion_queue/13542713024a29d.flv  -f flv  -vcodec libx264 -r 25  -ab 128000  -ar 22050  /mnt/array1/www/htdocs/wwwroot/files/videos/13542713024a29d.flv  2> /mnt/array1/www/htdocs/wwwroot/files/temp/135427132529681.tmp


Conversion Details

Flv Quick Conv;raw_output_for_stat : ffmpeg version N-44546-g66bdc58 Copyright (c) 2000-2012 the FFmpeg developers
  built on Sep 20 2012 14:29:12 with gcc 4.3.2 (Sourcery G++ Lite 2008q3-72)
  configuration: --prefix=/home/administrator/nas/usr/local --arch=arm --target-os=linux --enable-gpl --enable-libx264 --enable-libxvid --enable-cross-compile --cross-prefix=/usr/local/arm/4.3.2/bin/arm-linux- --extra-cflags=-I/home/administrator/nas/usr/local/include --extra-ldflags=-L/home/administrator/nas/usr/local/lib --extra-cflags=-static --extra-ldflags=-static --enable-libfaac --enable-nonfree
  libavutil      51. 73.101 / 51. 73.101
  libavcodec     54. 56.100 / 54. 56.100
  libavformat    54. 27.101 / 54. 27.101
  libavdevice    54.  2.100 / 54.  2.100
  libavfilter     3. 16.104 /  3. 16.104
  libswscale      2.  1.101 /  2.  1.101
  libswresample   0. 15.100 /  0. 15.100
  libpostproc    52.  0.100 / 52.  0.100
Input #0, flv, from '/mnt/array1/www/htdocs/wwwroot/files/videos/13542713024a29d.flv':
  Metadata:
    starttime       : 0
    totalduration   : 299
    totaldatarate   : 545
    bytelength      : 20391508
    canseekontime   : true
    sourcedata      : BCA28DD06HH1348547540438031
    purl            : 
    pmsg            : 
  Duration: 00:04:59.06, start: 0.000000, bitrate: 545 kb/s
    Stream #0:0: Video: h264 (Main), yuv420p, 854x480, 453 kb/s, 29.97 tbr, 1k tbn, 59.94 tbc
    Stream #0:1: Audio: aac, 44100 Hz, stereo, s16, 96 kb/s
Output #0, null, to '/dev/null':
  Metadata:
    starttime       : 0
    totalduration   : 299
    totaldatarate   : 545
    bytelength      : 20391508
    canseekontime   : true
    sourcedata      : BCA28DD06HH1348547540438031
    purl            : 
    pmsg            : 
    encoder         : Lavf54.27.101
    Stream #0:0: Video: h264, yuv420p, 854x480, q=2-31, 453 kb/s, 90k tbn, 29.97 tbc
    Stream #0:1: Audio: aac, 44100 Hz, stereo, 96 kb/s
Stream mapping:
  Stream #0:0 -> #0:0 (copy)
  Stream #0:1 -> #0:1 (copy)
Press [q] to stop, [?] for help
frame=  805 fps=0.0 q=-1.0 size=       0kB time=00:00:26.86 bitrate=   0.0kbits/s    frame= 1419 fps=1419 q=-1.0 size=       0kB time=00:00:47.36 bitrate=   0.0kbits/s    frame= 2541 fps=1694 q=-1.0 size=       0kB time=00:01:24.79 bitrate=   0.0kbits/s    frame= 3373 fps=1655 q=-1.0 size=       0kB time=00:01:52.54 bitrate=   0.0kbits/s    frame= 4061 fps=1580 q=-1.0 size=       0kB time=00:02:15.51 bitrate=   0.0kbits/s    frame= 4660 fps=1518 q=-1.0 size=       0kB time=00:02:35.48 bitrate=   0.0kbits/s    frame= 5312 fps=1470 q=-1.0 size=       0kB time=00:02:57.24 bitrate=   0.0kbits/s    frame= 5852 fps=1401 q=-1.0 size=       0kB time=00:03:15.26 bitrate=   0.0kbits/s    frame= 6063 fps=1294 q=-1.0 size=       0kB time=00:03:22.30 bitrate=   0.0kbits/s    frame= 6536 fps=1242 q=-1.0 size=       0kB time=00:03:38.08 bitrate=   0.0kbits/s    frame= 6834 fps=1186 q=-1.0 size=       0kB time=00:03:48.02 bitrate=   0.0kbits/s    frame= 7491 fps=1196 q=-1.0 size=       0kB time=00:04:09.96 bitrate=   0.0kbits/s    frame= 7865 fps=1160 q=-1.0 size=       0kB time=00:04:22.43 bitrate=   0.0kbits/s    frame= 8482 fps=1165 q=-1.0 size=       0kB time=00:04:43.02 bitrate=   0.0kbits/s    frame= 8964 fps=1179 q=-1.0 Lsize=       0kB time=00:04:59.21 bitrate=   0.0kbits/s    
video:16112kB audio:3412kB subtitle:0 global headers:0kB muxing overhead -100.000000%

raw_output_for_stat : ffmpeg version N-44546-g66bdc58 Copyright (c) 2000-2012 the FFmpeg developers
  built on Sep 20 2012 14:29:12 with gcc 4.3.2 (Sourcery G++ Lite 2008q3-72)
  configuration: --prefix=/home/administrator/nas/usr/local --arch=arm --target-os=linux --enable-gpl --enable-libx264 --enable-libxvid --enable-cross-compile --cross-prefix=/usr/local/arm/4.3.2/bin/arm-linux- --extra-cflags=-I/home/administrator/nas/usr/local/include --extra-ldflags=-L/home/administrator/nas/usr/local/lib --extra-cflags=-static --extra-ldflags=-static --enable-libfaac --enable-nonfree
  libavutil      51. 73.101 / 51. 73.101
  libavcodec     54. 56.100 / 54. 56.100
  libavformat    54. 27.101 / 54. 27.101
  libavdevice    54.  2.100 / 54.  2.100
  libavfilter     3. 16.104 /  3. 16.104
  libswscale      2.  1.101 /  2.  1.101
  libswresample   0. 15.100 /  0. 15.100
  libpostproc    52.  0.100 / 52.  0.100
Input #0, flv, from '/mnt/array1/www/htdocs/wwwroot/files/videos/13542713024a29d.flv':
  Metadata:
    starttime       : 0
    totalduration   : 299
    totaldatarate   : 545
    bytelength      : 20391508
    canseekontime   : true
    sourcedata      : BCA28DD06HH1348547540438031
    purl            : 
    pmsg            : 
  Duration: 00:04:59.06, start: 0.000000, bitrate: 545 kb/s
    Stream #0:0: Video: h264 (Main), yuv420p, 854x480, 453 kb/s, 29.97 tbr, 1k tbn, 59.94 tbc
    Stream #0:1: Audio: aac, 44100 Hz, stereo, s16, 96 kb/s
Output #0, null, to '/dev/null':
  Metadata:
    starttime       : 0
    totalduration   : 299
    totaldatarate   : 545
    bytelength      : 20391508
    canseekontime   : true
    sourcedata      : BCA28DD06HH1348547540438031
    purl            : 
    pmsg            : 
    encoder         : Lavf54.27.101
    Stream #0:0: Video: h264, yuv420p, 854x480, q=2-31, 453 kb/s, 90k tbn, 29.97 tbc
    Stream #0:1: Audio: aac, 44100 Hz, stereo, 96 kb/s
Stream mapping:
  Stream #0:0 -> #0:0 (copy)
  Stream #0:1 -> #0:1 (copy)
Press [q] to stop, [?] for help
frame=  655 fps=0.0 q=-1.0 size=       0kB time=00:00:21.85 bitrate=   0.0kbits/s    frame= 1393 fps=1392 q=-1.0 size=       0kB time=00:00:46.48 bitrate=   0.0kbits/s    frame= 2113 fps=1408 q=-1.0 size=       0kB time=00:01:10.51 bitrate=   0.0kbits/s    frame= 2723 fps=1359 q=-1.0 size=       0kB time=00:01:30.85 bitrate=   0.0kbits/s    frame= 3528 fps=1401 q=-1.0 size=       0kB time=00:01:57.71 bitrate=   0.0kbits/s    frame= 4348 fps=1441 q=-1.0 size=       0kB time=00:02:25.07 bitrate=   0.0kbits/s    frame= 4821 fps=1371 q=-1.0 size=       0kB time=00:02:40.86 bitrate=   0.0kbits/s    frame= 5418 fps=1349 q=-1.0 size=       0kB time=00:03:00.79 bitrate=   0.0kbits/s    frame= 6037 fps=1336 q=-1.0 size=       0kB time=00:03:21.43 bitrate=   0.0kbits/s    frame= 6765 fps=1337 q=-1.0 size=       0kB time=00:03:45.72 bitrate=   0.0kbits/s    frame= 7383 fps=1321 q=-1.0 size=       0kB time=00:04:06.34 bitrate=   0.0kbits/s    frame= 7989 fps=1312 q=-1.0 size=       0kB time=00:04:26.56 bitrate=   0.0kbits/s    frame= 8636 fps=1310 q=-1.0 size=       0kB time=00:04:48.15 bitrate=   0.0kbits/s    frame= 8964 fps=1302 q=-1.0 Lsize=       0kB time=00:04:59.21 bitrate=   0.0kbits/s    
video:16112kB audio:3412kB subtitle:0 global headers:0kB muxing overhead -100.000000%



output_format : flv
output_duration : 299.06
output_size : 20391508
output_bitrate : 532
output_video_width : 854
output_video_height : 480
output_video_wh_ratio : 1.77916666667
output_video_codec : h264
output_video_rate : 29.9739182773
output_video_bitrate : 431
output_video_color : N/A
output_audio_codec : aac
output_audio_bitrate : 91
output_audio_rate : 44100
output_audio_channels : stereo
output_path : /mnt/array1/www/htdocs/wwwroot/files/videos/13542713024a29d.flv


Time Took : 31.1149 seconds

conversion_status : completed
